
>>
>> "C:\Program Files (x86)\ffmpegyag\bin\ffmpeg.exe" -ss 00:00:29.240 -i "C:\Users\Public\Documents\Unity Projects\test\Assets\Resources\balloons\气球_人2.webm" -strict experimental -f mp4 -map_chapters -1 -map 0:0 -map 0:1 -sn -b:a:0 192k -c:v:0 libx264 -b:v:0 1800k -mbd:v:0 rd -mbcmp:v:0 rd -cmp:v:0 rd -precmp:v:0 rd -subcmp:v:0 rd -trellis:v:0 1 -ss 00:00:15.000 -t 00:00:03.999 -y "C:\Users\Public\Documents\Unity Projects\test\Assets\Resources\balloons\trimed_ren.mp4"
>>

ffmpeg version 2.5.2 Copyright (c) 2000-2014 the FFmpeg developers
  built on Dec 30 2014 17:18:09 with gcc 4.9.2 (GCC)
  configuration: --disable-static --enable-shared --enable-gpl --enable-version3 --disable-w32threads --enable-avisynth --enable-bzlib --enable-fontconfig --enable-frei0r --enable-gnutls --enable-iconv --enable-libass --enable-libbluray --enable-libbs2b --enable-libcaca --enable-libfreetype --enable-libgme --enable-libgsm --enable-libilbc --enable-libmodplug --enable-libmp3lame --enable-libopencore-amrnb --enable-libopencore-amrwb --enable-libopenjpeg --enable-libopus --enable-librtmp --enable-libschroedinger --enable-libsoxr --enable-libspeex --enable-libtheora --enable-libtwolame --enable-libvidstab --enable-libvo-aacenc --enable-libvo-amrwbenc --enable-libvorbis --enable-libvpx --enable-libwavpack --enable-libwebp --enable-libx264 --enable-libx265 --enable-libxavs --enable-libxvid --enable-lzma --enable-decklink --enable-zlib
  libavutil      54. 15.100 / 54. 15.100
  libavcodec     56. 13.100 / 56. 13.100
  libavformat    56. 15.102 / 56. 15.102
  libavdevice    56.  3.100 / 56.  3.100
  libavfilter     5.  2.103 /  5.  2.103
  libswscale      3.  1.101 /  3.  1.101
  libswresample   1.  1.100 /  1.  1.100
  libpostproc    53.  3.100 / 53.  3.100
Input #0, matroska,webm, from 'C:\Users\Public\Documents\Unity Projects\test\Assets\Resources\balloons\气球_人2.webm':
  Metadata:
    encoder         : Lavf56.15.102
  Duration: 00:00:48.24, start: 0.000000, bitrate: 671 kb/s
    Stream #0:0(eng): Video: vp8, yuv420p, 1920x1080, SAR 1:1 DAR 16:9, 50 fps, 50 tbr, 1k tbn, 1k tbc (default)
    Metadata:
      alpha_mode      : 1
    Stream #0:1(eng): Audio: vorbis, 48000 Hz, stereo, fltp (default)
[libx264 @ 02d67fc0] using SAR=1/1
[libx264 @ 02d67fc0] using cpu capabilities: MMX2 SSE2Fast SSSE3 SSE4.2 AVX FMA3 AVX2 LZCNT BMI2
[libx264 @ 02d67fc0] profile High, level 4.2
[libx264 @ 02d67fc0] 264 - core 144 r2525 40bb568 - H.264/MPEG-4 AVC codec - Copyleft 2003-2014 - http://www.videolan.org/x264.html - options: cabac=1 ref=3 deblock=1:0:0 analyse=0x3:0x113 me=hex subme=7 psy=1 psy_rd=1.00:0.00 mixed_ref=1 me_range=16 chroma_me=0 trellis=1 8x8dct=1 cqm=0 deadzone=21,11 fast_pskip=1 chroma_qp_offset=-2 threads=6 lookahead_threads=1 sliced_threads=0 nr=0 decimate=1 interlaced=0 bluray_compat=0 constrained_intra=0 bframes=3 b_pyramid=2 b_adapt=1 b_bias=0 direct=1 weightb=1 open_gop=0 weightp=2 keyint=250 keyint_min=25 scenecut=40 intra_refresh=0 rc_lookahead=40 rc=abr mbtree=1 bitrate=1800 ratetol=1.0 qcomp=0.60 qpmin=0 qpmax=69 qpstep=4 ip_ratio=1.40 aq=1:1.00
Output #0, mp4, to 'C:\Users\Public\Documents\Unity Projects\test\Assets\Resources\balloons\trimed_ren.mp4':
  Metadata:
    encoder         : Lavf56.15.102
    Stream #0:0(eng): Video: h264 (libx264) ([33][0][0][0] / 0x0021), yuv420p, 1920x1080 [SAR 1:1 DAR 16:9], q=-1--1, 1800 kb/s, 50 fps, 12800 tbn, 50 tbc (default)
    Metadata:
      alpha_mode      : 1
      encoder         : Lavc56.13.100 libx264
    Stream #0:1(eng): Audio: aac (libvo_aacenc) ([64][0][0][0] / 0x0040), 48000 Hz, stereo, s16, 192 kb/s (default)
    Metadata:
      encoder         : Lavc56.13.100 libvo_aacenc
Stream mapping:
  Stream #0:0 -> #0:0 (vp8 (native) -> h264 (libx264))
  Stream #0:1 -> #0:1 (vorbis (native) -> aac (libvo_aacenc))
Press [q] to stop, [?] for help
video:793kB audio:94kB subtitle:0kB other streams:0kB global headers:0kB muxing overhead: 0.690062%
[libx264 @ 02d67fc0] frame I:1     Avg QP:21.00  size:   421
[libx264 @ 02d67fc0] frame P:50    Avg QP:14.55  size:  9750
[libx264 @ 02d67fc0] frame B:149   Avg QP:18.18  size:  2172
[libx264 @ 02d67fc0] consecutive B-frames:  0.5%  0.0%  1.5% 98.0%
[libx264 @ 02d67fc0] mb I  I16..4: 100.0%  0.0%  0.0%
[libx264 @ 02d67fc0] mb P  I16..4:  2.1%  1.6%  0.3%  P16..4:  7.7%  2.6%  2.0%  0.0%  0.0%    skip:83.8%
[libx264 @ 02d67fc0] mb B  I16..4:  0.3%  0.1%  0.0%  B16..8:  6.1%  0.5%  0.0%  direct: 1.2%  skip:91.8%  L0:55.5% L1:41.3% BI: 3.2%
[libx264 @ 02d67fc0] final ratefactor: 16.37
[libx264 @ 02d67fc0] 8x8 transform intra:27.2% inter:63.5%
[libx264 @ 02d67fc0] coded y,uvDC,uvAC intra: 31.4% 56.2% 13.9% inter: 2.9% 4.7% 0.3%
[libx264 @ 02d67fc0] i16 v,h,dc,p: 58% 15% 22%  5%
[libx264 @ 02d67fc0] i8 v,h,dc,ddl,ddr,vr,hd,vl,hu: 15% 15% 53%  2%  3%  2%  5%  2%  3%
[libx264 @ 02d67fc0] i4 v,h,dc,ddl,ddr,vr,hd,vl,hu: 27% 23% 37%  2%  3%  2%  3%  1%  1%
[libx264 @ 02d67fc0] i8c dc,h,v,p: 67% 14% 18%  1%
[libx264 @ 02d67fc0] Weighted P-Frames: Y:0.0% UV:0.0%
[libx264 @ 02d67fc0] ref P L0: 61.5%  8.1% 22.3%  8.1%
[libx264 @ 02d67fc0] ref B L0: 86.6% 10.0%  3.4%
[libx264 @ 02d67fc0] ref B L1: 93.0%  7.0%
[libx264 @ 02d67fc0] kb/s:1623.15
[libvo_aacenc @ 02d68fc0] 1 frames left in the queue on closing
